<svg width="29" height="28" viewBox="0 0 25 24" fill="none" xmlns="http://www.w3.org/2000/svg">
<path id="Vector" d="M23.4991 5.97438L18.0268 0.502162C17.8677 0.342958 17.6787 0.21667 17.4707 0.130508C17.2627 0.044347 17.0397 0 16.8146 0C16.5895 0 16.3665 0.044347 16.1585 0.130508C15.9505 0.21667 15.7616 0.342958 15.6024 0.502162L0.502041 15.6013C0.342533 15.7602 0.216055 15.9492 0.129892 16.1572C0.0437293 16.3653 -0.000414943 16.5883 2.93929e-06 16.8135V22.2857C2.93929e-06 22.7404 0.180614 23.1764 0.502103 23.4979C0.823592 23.8194 1.25963 24 1.71428 24H7.1865C7.41168 24.0004 7.63473 23.9563 7.84278 23.8701C8.05083 23.7839 8.23978 23.6575 8.39873 23.498L18.9489 12.9478L19.5134 15.2033L14.9093 19.8074C14.8402 19.8754 14.7853 19.9565 14.7477 20.0459C14.7101 20.1353 14.6905 20.2312 14.6902 20.3282C14.6899 20.4252 14.7087 20.5213 14.7457 20.6109C14.7827 20.7006 14.8371 20.782 14.9057 20.8506C14.9743 20.9191 15.0558 20.9734 15.1455 21.0103C15.2352 21.0471 15.3313 21.0659 15.4283 21.0655C15.5253 21.065 15.6212 21.0454 15.7106 21.0076C15.7999 20.9699 15.8809 20.9149 15.9489 20.8457L20.8468 15.9478C20.9366 15.8581 21.0016 15.7466 21.0355 15.6243C21.0695 15.502 21.0711 15.373 21.0403 15.2498L20.1611 11.7356L23.4991 8.39885C23.6583 8.23967 23.7846 8.05068 23.8707 7.84268C23.9569 7.63468 24.0012 7.41175 24.0012 7.18662C24.0012 6.96148 23.9569 6.73855 23.8707 6.53055C23.7846 6.32255 23.6583 6.13357 23.4991 5.97438ZM1.46938 22.2857V18.1825L5.81875 22.5306H1.71428C1.64933 22.5306 1.58704 22.5048 1.54111 22.4589C1.49518 22.413 1.46938 22.3507 1.46938 22.2857ZM7.5918 22.2257L1.77305 16.4082L12.4897 5.69275L18.3085 11.5103L7.5918 22.2257ZM22.4595 7.35927L19.3468 10.4719L13.5293 4.65316L16.6407 1.54175C16.6635 1.51898 16.6905 1.50092 16.7202 1.48859C16.7499 1.47627 16.7818 1.46992 16.814 1.46992C16.8462 1.46992 16.878 1.47627 16.9078 1.48859C16.9375 1.50092 16.9645 1.51898 16.9873 1.54175L22.4595 7.01274C22.4822 7.03548 22.5003 7.06249 22.5126 7.09222C22.525 7.12195 22.5313 7.15382 22.5313 7.186C22.5313 7.21819 22.525 7.25006 22.5126 7.27979C22.5003 7.30951 22.4822 7.33652 22.4595 7.35927Z" fill="black"/>
</svg>
