<?xml version="1.0" encoding="utf-8"?>
<!-- Generator: Adobe Illustrator 26.5.0, SVG Export Plug-In . SVG Version: 6.00 Build 0)  -->
<svg version="1.1" id="Layer_1" xmlns="http://www.w3.org/2000/svg" xmlns:xlink="http://www.w3.org/1999/xlink" x="0px" y="0px"
	 viewBox="0 0 413.4 389.4" style="enable-background:new 0 0 413.4 389.4;" xml:space="preserve">
<style type="text/css">
	.st0{fill:#414042;}
	.st1{fill:#F26428;}
</style>
<g>
	<polygon class="st0" points="270.6,124.2 208.3,61.8 73.8,61.8 73.8,120.6 73.8,124.2 73.8,190.7 136.7,190.7 136.7,124.2 	"/>
	<polygon class="st1" points="338.5,131.6 280.4,190.7 143.3,190.7 203.6,131.6 	"/>
	<polygon class="st1" points="277.6,198.1 277.6,265.1 143.5,265.1 204.2,326.2 205.5,327.6 339.6,327.6 339.6,292.2 339.6,265.1 
		339.6,198.1 	"/>
	<polygon class="st0" points="135.9,198.1 85.4,247.6 75.6,257.2 73.8,259 73.8,327.6 136.7,327.6 136.7,257.2 204.2,257.2 
		204.2,198.1 	"/>
</g>
</svg>
