<?xml version="1.0" encoding="utf-8"?>
<!-- Generator: Adobe Illustrator 26.5.0, SVG Export Plug-In . SVG Version: 6.00 Build 0)  -->
<svg version="1.1" id="Layer_1" xmlns="http://www.w3.org/2000/svg" xmlns:xlink="http://www.w3.org/1999/xlink" x="0px" y="0px"
	 viewBox="0 0 612 389.4" style="enable-background:new 0 0 612 389.4;" xml:space="preserve">
<style type="text/css">
	.st0{fill:#414042;}
	.st1{fill:#F26428;}
</style>
<g>
	<g>
		<polygon class="st0" points="196.1,159.3 165,128.2 98,128.2 98,157.5 98,159.3 98,192.5 129.4,192.5 129.4,159.3 		"/>
		<polygon class="st1" points="230,163 201,192.5 132.7,192.5 162.7,163 		"/>
		<polygon class="st1" points="199.6,196.1 199.6,229.6 132.8,229.6 163,260 163.7,260.7 230.5,260.7 230.5,243.1 230.5,229.6 
			230.5,196.1 		"/>
		<polygon class="st0" points="128.9,196.1 103.8,220.9 98.9,225.6 98,226.5 98,260.7 129.4,260.7 129.4,225.6 163,225.6 163,196.1 
					"/>
	</g>
	<g>
		<path class="st0" d="M254.3,244.5v-75.3h20.3v7.6H260v25.6h11.8v7.6H260v34.4H254.3z"/>
		<path class="st0" d="M279.3,182.6V171h5.5v11.6H279.3z M279.3,244.5v-54.1h5.5v54.1H279.3z"/>
		<path class="st0" d="M306.7,189.9v8c-0.7-0.3-1.4-0.5-2.3-0.5c-4.8,0-7.2,5.2-7.2,15.6v31.5h-5.5v-54.1h4.8l0.1,8.9
			c1.2-6.7,3.8-10,7.7-10C305.4,189.2,306.2,189.5,306.7,189.9z"/>
		<path class="st0" d="M309.4,229.9v-1.8h5.3v2c0,5.5,1.7,8.3,5,8.3c3.4,0,5-2.6,5-7.9c0-1.6-0.4-3.1-1-4.4
			c-1.2-2.7-2.6-3.8-5.3-5.8c-1.5-1.2-2.6-2-3.2-2.7c-0.7-0.6-1.5-1.6-2.6-3c-2-2.7-2.9-6.2-2.9-11c0-8.9,3.7-14.4,9.9-14.4
			c6.1,0,9.9,5.7,9.9,15.1v1.1h-5.2v-1.3c0-5.3-1.5-7.9-4.7-7.9c-2.7,0-4.7,2.6-4.7,7.3c0,1.7,0.4,3.3,1,4.7
			c1.4,2.7,2.6,3.7,5.6,5.8c2.7,2,3.8,3,5.8,5.7c2,2.6,2.9,6,2.9,10.7c0,9.4-3.7,15.1-10.2,15.1
			C313.3,245.5,309.4,239.7,309.4,229.9z"/>
		<path class="st0" d="M349.7,197.2h-6.7v35.1c0,4.3,1,6,3.6,6c1.1,0,2.1-0.3,3.1-0.9v7c-1.1,0.8-2.5,1.1-4.1,1.1
			c-5.4,0-8.1-4.1-8.1-12.4v-35.9H333v-6.9h4.8l0.6-15.6h4.8v15.6h6.7V197.2z"/>
		<path class="st0" d="M366,227.6V186c0-11.3,4.1-18,11.4-18c7.3,0,11.4,6.7,11.4,18v7.7h-5.4v-8.3c0-6.3-2.3-9.8-5.8-9.8
			c-3.6,0-5.9,3.4-5.9,9.8v42.6c0,6.3,2.3,9.8,5.9,9.8c3.6,0,5.8-3.4,5.8-9.8v-10.5h5.4v10c0,11.3-4.1,18-11.4,18
			C370.2,245.5,366,238.9,366,227.6z"/>
		<path class="st0" d="M410.6,244.5c-0.2-1.2-0.4-3.6-0.6-7.3c-1.5,5.6-4.4,8.4-8.6,8.4c-5,0-8.2-5.2-8.2-13.3
			c0-8.3,2.5-13.1,9.1-17.8c3.1-2,5-3.6,5.8-4.5c0.8-1,1.2-2.5,1.2-4.3v-1.3c0-5.4-1.6-8.1-4.8-8.1c-3.2,0-5.1,3-5.1,8.3v1.6h-5.2
			V205c0-10,3.7-15.7,10.4-15.7c6.8,0,10.2,5.5,10.2,16.4v24.1c0,6.6,0.3,11.4,0.8,14.7H410.6z M409.4,226.2v-10.9
			c-0.6,1.2-2.3,2.8-5.3,5.1c-3.4,2.6-5.2,6.1-5.2,10.7c0,5,1.5,7.4,4.5,7.4C407.1,238.4,409.4,233.9,409.4,226.2z"/>
		<path class="st0" d="M443.4,204.9v25c0,10.4-2.9,15.7-8.6,15.7c-3.3,0-5.8-2.2-7.5-6.5v22.1h-5.5v-70.8h4.8l0.1,7.3
			c1.5-5.6,4.2-8.4,8.2-8.4C440.5,189.2,443.4,194.4,443.4,204.9z M437.8,205.5c0-6-1.5-9-4.7-9c-3.5,0-5.9,4.3-5.9,12.1v17.8
			c0,7.7,2.4,12.1,5.9,12.1c3.1,0,4.7-3,4.7-9.1V205.5z"/>
		<path class="st0" d="M449.8,182.6V171h5.5v11.6H449.8z M449.8,244.5v-54.1h5.5v54.1H449.8z"/>
		<path class="st0" d="M476.7,197.2h-6.7v35.1c0,4.3,1,6,3.6,6c1.1,0,2.1-0.3,3.1-0.9v7c-1.1,0.8-2.5,1.1-4.1,1.1
			c-5.4,0-8.1-4.1-8.1-12.4v-35.9H460v-6.9h4.8l0.6-15.6h4.8v15.6h6.7V197.2z"/>
		<path class="st0" d="M497.4,244.5c-0.2-1.2-0.4-3.6-0.6-7.3c-1.5,5.6-4.4,8.4-8.6,8.4c-5,0-8.2-5.2-8.2-13.3
			c0-8.3,2.5-13.1,9.1-17.8c3.1-2,5-3.6,5.8-4.5c0.8-1,1.2-2.5,1.2-4.3v-1.3c0-5.4-1.6-8.1-4.8-8.1c-3.2,0-5.1,3-5.1,8.3v1.6h-5.2
			V205c0-10,3.7-15.7,10.4-15.7c6.8,0,10.2,5.5,10.2,16.4v24.1c0,6.6,0.3,11.4,0.8,14.7H497.4z M496.2,226.2v-10.9
			c-0.6,1.2-2.3,2.8-5.3,5.1c-3.4,2.6-5.2,6.1-5.2,10.7c0,5,1.5,7.4,4.5,7.4C493.9,238.4,496.2,233.9,496.2,226.2z"/>
		<path class="st0" d="M508.5,244.5v-75.3h5.5v75.3H508.5z"/>
	</g>
</g>
</svg>
